<svg width="20" height="20" viewBox="0 0 20 20" fill="none" xmlns="http://www.w3.org/2000/svg">
<mask id="mask0_734_32211" style="mask-type:alpha" maskUnits="userSpaceOnUse" x="0" y="0" width="20" height="20">
<rect width="20" height="20" fill="#D9D9D9"/>
</mask>
<g mask="url(#mask0_734_32211)">
<path d="M10.4167 9.95898C10.8194 9.51454 11.1285 9.0076 11.3438 8.43815C11.559 7.86871 11.6667 7.27843 11.6667 6.66732C11.6667 6.05621 11.559 5.46593 11.3438 4.89648C11.1285 4.32704 10.8194 3.8201 10.4167 3.37565C11.25 3.48676 11.9444 3.85482 12.5 4.47982C13.0556 5.10482 13.3333 5.83398 13.3333 6.66732C13.3333 7.50065 13.0556 8.22982 12.5 8.85482C11.9444 9.47982 11.25 9.84787 10.4167 9.95898ZM14.5417 16.6673C14.6944 16.4173 14.809 16.15 14.8854 15.8652C14.9618 15.5805 15 15.2923 15 15.0007V14.1673C15 13.6673 14.8889 13.1916 14.6667 12.7402C14.4444 12.2888 14.1528 11.8895 13.7917 11.5423C14.5 11.7923 15.1562 12.1152 15.7604 12.5111C16.3646 12.9069 16.6667 13.459 16.6667 14.1673V15.0007C16.6667 15.459 16.5035 15.8513 16.1771 16.1777C15.8507 16.5041 15.4583 16.6673 15 16.6673H14.5417ZM16.6667 9.16732H15.8333C15.5972 9.16732 15.3993 9.08746 15.2396 8.92773C15.0799 8.76801 15 8.5701 15 8.33398C15 8.09787 15.0799 7.89996 15.2396 7.74023C15.3993 7.58051 15.5972 7.50065 15.8333 7.50065H16.6667V6.66732C16.6667 6.43121 16.7465 6.23329 16.9062 6.07357C17.066 5.91385 17.2639 5.83398 17.5 5.83398C17.7361 5.83398 17.934 5.91385 18.0938 6.07357C18.2535 6.23329 18.3333 6.43121 18.3333 6.66732V7.50065H19.1667C19.4028 7.50065 19.6007 7.58051 19.7604 7.74023C19.9201 7.89996 20 8.09787 20 8.33398C20 8.5701 19.9201 8.76801 19.7604 8.92773C19.6007 9.08746 19.4028 9.16732 19.1667 9.16732H18.3333V10.0007C18.3333 10.2368 18.2535 10.4347 18.0938 10.5944C17.934 10.7541 17.7361 10.834 17.5 10.834C17.2639 10.834 17.066 10.7541 16.9062 10.5944C16.7465 10.4347 16.6667 10.2368 16.6667 10.0007V9.16732ZM6.66667 10.0007C5.75 10.0007 4.96528 9.67426 4.3125 9.02148C3.65972 8.36871 3.33333 7.58398 3.33333 6.66732C3.33333 5.75065 3.65972 4.96593 4.3125 4.31315C4.96528 3.66037 5.75 3.33398 6.66667 3.33398C7.58333 3.33398 8.36806 3.66037 9.02083 4.31315C9.67361 4.96593 10 5.75065 10 6.66732C10 7.58398 9.67361 8.36871 9.02083 9.02148C8.36806 9.67426 7.58333 10.0007 6.66667 10.0007ZM0 15.0007V14.334C0 13.8618 0.121528 13.4277 0.364583 13.0319C0.607639 12.6361 0.930556 12.334 1.33333 12.1257C2.19444 11.6951 3.06944 11.3722 3.95833 11.1569C4.84722 10.9416 5.75 10.834 6.66667 10.834C7.58333 10.834 8.48611 10.9416 9.375 11.1569C10.2639 11.3722 11.1389 11.6951 12 12.1257C12.4028 12.334 12.7257 12.6361 12.9688 13.0319C13.2118 13.4277 13.3333 13.8618 13.3333 14.334V15.0007C13.3333 15.459 13.1701 15.8513 12.8438 16.1777C12.5174 16.5041 12.125 16.6673 11.6667 16.6673H1.66667C1.20833 16.6673 0.815972 16.5041 0.489583 16.1777C0.163194 15.8513 0 15.459 0 15.0007Z" fill="black"/>
</g>
</svg>
